<svg xmlns="http://www.w3.org/2000/svg" viewBox="0 0 100 100">
  <defs>
    <linearGradient id="grad" x1="0%" y1="0%" x2="100%" y2="100%">
      <stop offset="0%" style="stop-color:#0D9488;stop-opacity:1" />
      <stop offset="100%" style="stop-color:#14B8A6;stop-opacity:1" />
    </linearGradient>
  </defs>
  <circle cx="50" cy="50" r="45" fill="url(#grad)"/>
  <path d="M50 25 C35 25, 25 40, 25 50 C25 65, 35 75, 50 75 C55 75, 60 73, 64 70 L64 55 L58 55 L58 68 C54 70, 52 70, 50 70 C40 70, 32 62, 32 50 C32 42, 38 35, 50 35 C55 35, 58 37, 60 40 L64 36 C60 31, 55 25, 50 25 Z" fill="white"/>
</svg>
